<svg xmlns="http://www.w3.org/2000/svg" viewBox="0 0 53 44" width="53" height="44">
	<style>
		tspan { white-space:pre }
		.shp0 { fill: #ec8c07 } 
	</style>
	<path id="Forma 1" class="shp0" d="M44.55 8.21C42.5 8.21 40.83 9.87 40.83 11.9C40.83 13.94 42.5 15.59 44.55 15.59C46.6 15.59 48.27 13.94 48.27 11.9C48.27 9.87 46.6 8.21 44.55 8.21ZM44.55 14.12C43.31 14.12 42.3 13.12 42.3 11.9C42.3 10.68 43.31 9.69 44.55 9.69C45.79 9.69 46.8 10.68 46.8 11.9C46.8 13.12 45.79 14.12 44.55 14.12ZM48.69 31.53L48.59 31.53C48.55 30.77 48.31 30.06 47.91 29.46C48.7 27.28 49.12 24.94 49.12 22.5C49.12 20.98 48.96 19.5 48.64 18.07C50.7 16.72 52 14.4 52 11.9C52 10.13 51.36 8.42 50.2 7.08C49.93 6.78 49.47 6.75 49.16 7.02C48.86 7.28 48.83 7.75 49.09 8.05C50.02 9.12 50.54 10.49 50.54 11.9C50.54 14.33 48.99 16.55 46.7 17.42C46.54 17.48 46.41 17.59 46.33 17.74L44.55 20.78L42.77 17.74C42.69 17.59 42.56 17.48 42.4 17.42C40.11 16.55 38.56 14.33 38.56 11.9C38.56 8.64 41.25 5.99 44.55 5.99C45.18 5.99 45.81 6.09 46.41 6.28C46.79 6.41 47.2 6.19 47.33 5.8C47.45 5.42 47.24 5 46.85 4.88C46.11 4.64 45.34 4.52 44.55 4.52C43.04 4.52 41.63 4.97 40.46 5.74C37.14 3.38 33.1 2 28.74 2C20.03 2 12.57 7.53 9.66 15.28C7.48 15.75 5.84 17.68 5.79 20L5.51 20C3.57 20 2 21.59 2 23.53C2 25.48 3.57 27.07 5.51 27.07L8.87 27.07C9.7 30.73 11.51 34.02 14.01 36.65C14.05 36.71 14.11 36.77 14.17 36.81C17.87 40.63 23.03 43 28.74 43C34.03 43 38.86 40.96 42.49 37.62L48.69 37.62C50.36 37.62 51.72 36.26 51.72 34.58C51.72 32.9 50.36 31.53 48.69 31.53ZM47.32 18.94C47.5 19.86 47.61 20.8 47.64 21.76L45.68 21.76L47.32 18.94ZM41.64 18.7L43.42 21.76L39.36 21.76C39.33 20.05 39.19 18.37 38.95 16.76C39.68 17.59 40.59 18.26 41.64 18.7ZM39.36 23.24L47.64 23.24C47.58 24.99 47.28 26.68 46.77 28.28C46.1 27.82 45.29 27.54 44.42 27.54C42.95 27.54 41.59 28.33 40.85 29.57C40.55 29.48 40.24 29.43 39.93 29.43C39.5 29.43 39.09 29.52 38.71 29.67C39.1 27.63 39.32 25.46 39.36 23.24ZM39.27 6.7C38.47 7.49 37.86 8.46 37.49 9.54C37.34 9.57 37.19 9.6 37.04 9.62C36.84 9.13 36.62 8.65 36.39 8.19C35.53 6.48 34.54 5.09 33.45 4.07C35.55 4.62 37.51 5.51 39.27 6.7ZM29.47 3.54C31.56 3.89 33.53 5.75 35.08 8.86C35.25 9.18 35.4 9.52 35.55 9.87C33.63 10.14 31.59 10.3 29.47 10.33L29.47 3.54ZM29.47 11.8C31.78 11.77 34.02 11.59 36.11 11.27C37.2 14.32 37.82 17.94 37.89 21.76L29.47 21.76L29.47 11.8ZM28.01 11.8L28.01 21.76L23.2 21.76C22.59 20.71 21.46 20 20.16 20L19.68 20C19.67 19.99 19.67 19.98 19.66 19.97C19.87 16.81 20.45 13.84 21.38 11.27C23.47 11.59 25.7 11.77 28.01 11.8ZM28.01 3.54L28.01 10.33C25.9 10.3 23.85 10.14 21.93 9.87C22.08 9.52 22.24 9.18 22.4 8.86C23.96 5.75 25.93 3.89 28.01 3.54ZM24.03 4.07C22.95 5.09 21.95 6.48 21.09 8.19C20.86 8.65 20.65 9.13 20.44 9.62C18.83 9.33 17.32 8.95 15.96 8.48C18.22 6.4 20.98 4.86 24.03 4.07ZM14.81 9.64C16.34 10.21 18.06 10.67 19.91 11.02C19.16 13.2 18.63 15.62 18.35 18.19C17.72 17.73 16.95 17.46 16.12 17.46C15.72 17.46 15.32 17.53 14.94 17.65C14.17 16.31 12.8 15.4 11.27 15.21C12.12 13.15 13.33 11.26 14.81 9.64ZM10.38 27.07L13.52 27.07C13.93 27.07 14.26 26.74 14.26 26.33C14.26 25.92 13.93 25.59 13.52 25.59L5.51 25.59C4.38 25.59 3.46 24.67 3.46 23.53C3.46 22.4 4.38 21.48 5.51 21.48L6.57 21.48C6.78 21.48 6.99 21.38 7.12 21.22C7.26 21.06 7.33 20.84 7.29 20.63C7.27 20.46 7.25 20.28 7.25 20.1C7.25 18.2 8.8 16.65 10.69 16.65C12.11 16.65 13.4 17.54 13.9 18.88C13.98 19.08 14.14 19.24 14.34 19.31C14.55 19.38 14.77 19.36 14.96 19.25C15.31 19.04 15.71 18.93 16.12 18.93C17.25 18.93 18.2 19.75 18.39 20.86C18.45 21.22 18.75 21.48 19.11 21.48L20.16 21.48C21.29 21.48 22.21 22.4 22.21 23.53C22.21 24.67 21.29 25.59 20.16 25.59L17.14 25.59C16.73 25.59 16.4 25.92 16.4 26.33C16.4 26.74 16.73 27.07 17.14 27.07L18.38 27.07C18.66 29.54 19.18 31.88 19.91 33.98C18.06 34.33 16.34 34.79 14.81 35.36C12.7 33.05 11.15 30.21 10.38 27.07ZM15.96 36.51C17.32 36.05 18.83 35.67 20.44 35.37C20.65 35.87 20.86 36.35 21.09 36.81C21.95 38.52 22.95 39.91 24.03 40.93C20.98 40.14 18.22 38.6 15.96 36.51ZM28.01 41.46C25.93 41.11 23.96 39.25 22.4 36.14C22.24 35.82 22.08 35.48 21.93 35.13C23.85 34.86 25.9 34.7 28.01 34.67L28.01 41.46ZM28.74 31.19C28.34 31.19 28.01 31.52 28.01 31.93L28.01 33.2C25.7 33.23 23.47 33.41 21.38 33.73C20.66 31.72 20.14 29.46 19.85 27.07L20.16 27.07C22.1 27.07 23.67 25.48 23.67 23.53C23.67 23.43 23.67 23.33 23.66 23.24L28.01 23.24L28.01 27.9C28.01 28.31 28.34 28.64 28.74 28.64C29.15 28.64 29.47 28.31 29.47 27.9L29.47 23.24L37.89 23.24C37.84 26.18 37.46 29 36.79 31.53L36.59 31.53C35.32 31.53 34.23 32.32 33.78 33.44C32.39 33.3 30.95 33.22 29.47 33.2L29.47 31.93C29.47 31.52 29.15 31.19 28.74 31.19ZM29.47 41.46L29.47 34.67C30.88 34.69 32.25 34.77 33.58 34.9C33.66 35.71 34.07 36.43 34.67 36.93C33.18 39.56 31.38 41.14 29.47 41.46ZM33.45 40.93C34.37 40.06 35.23 38.93 35.99 37.56C36.18 37.6 36.39 37.62 36.59 37.62L40.21 37.62C38.23 39.15 35.94 40.29 33.45 40.93ZM48.69 36.15L36.59 36.15C35.73 36.15 35.03 35.44 35.03 34.58C35.03 33.71 35.73 33.01 36.59 33.01L37.46 33.01C37.82 33.01 38.12 32.75 38.18 32.39C38.33 31.53 39.06 30.91 39.93 30.91C40.24 30.91 40.55 30.99 40.82 31.15C41.01 31.26 41.24 31.28 41.44 31.21C41.64 31.14 41.8 30.98 41.88 30.78C42.28 29.72 43.3 29.02 44.42 29.02C45.91 29.02 47.13 30.24 47.13 31.74C47.13 31.88 47.12 32.02 47.1 32.16C47.06 32.37 47.12 32.59 47.26 32.75C47.4 32.91 47.61 33.01 47.82 33.01L48.69 33.01C49.55 33.01 50.26 33.71 50.26 34.58C50.26 35.44 49.55 36.15 48.69 36.15Z" />
</svg>