<svg xmlns="http://www.w3.org/2000/svg" viewBox="0 0 55 31" width="55" height="31">
	<style>
		tspan { white-space:pre }
		.shp0 { fill: #ff9603 } 
	</style>
	<path id="Shape 1" class="shp0" d="M13.92 23.54C13.32 23.54 12.83 24.02 12.83 24.62C12.83 25.21 13.32 25.69 13.92 25.69C14.51 25.69 15 25.21 15 24.62C15 24.02 14.51 23.54 13.92 23.54ZM19.34 17.07C18.74 17.07 18.26 17.55 18.26 18.14C18.26 18.74 18.74 19.22 19.34 19.22C19.94 19.22 20.42 18.74 20.42 18.14C20.42 17.55 19.94 17.07 19.34 17.07ZM21.51 19.22C20.91 19.22 20.42 19.7 20.42 20.3C20.42 20.89 20.91 21.37 21.51 21.37C22.1 21.37 22.59 20.89 22.59 20.3C22.59 19.7 22.1 19.22 21.51 19.22ZM23.67 17.07C23.07 17.07 22.59 17.55 22.59 18.14C22.59 18.74 23.07 19.22 23.67 19.22C24.27 19.22 24.76 18.74 24.76 18.14C24.76 17.55 24.27 17.07 23.67 17.07ZM25.84 19.22C25.24 19.22 24.76 19.7 24.76 20.3C24.76 20.89 25.24 21.37 25.84 21.37C26.44 21.37 26.92 20.89 26.92 20.3C26.92 19.7 26.44 19.22 25.84 19.22ZM28.01 17.07C27.41 17.07 26.92 17.55 26.92 18.14C26.92 18.74 27.41 19.22 28.01 19.22C28.6 19.22 29.09 18.74 29.09 18.14C29.09 17.55 28.6 17.07 28.01 17.07ZM30.17 19.22C29.57 19.22 29.09 19.7 29.09 20.3C29.09 20.89 29.57 21.37 30.17 21.37C30.77 21.37 31.26 20.89 31.26 20.3C31.26 19.7 30.77 19.22 30.17 19.22ZM32.34 17.07C31.74 17.07 31.26 17.55 31.26 18.14C31.26 18.74 31.74 19.22 32.34 19.22C32.94 19.22 33.42 18.74 33.42 18.14C33.42 17.55 32.94 17.07 32.34 17.07ZM34.51 19.22C33.91 19.22 33.42 19.7 33.42 20.3C33.42 20.89 33.91 21.37 34.51 21.37C35.1 21.37 35.59 20.89 35.59 20.3C35.59 19.7 35.1 19.22 34.51 19.22ZM36.67 17.07C36.07 17.07 35.59 17.55 35.59 18.14C35.59 18.74 36.07 19.22 36.67 19.22C37.27 19.22 37.76 18.74 37.76 18.14C37.76 17.55 37.27 17.07 36.67 17.07ZM52.02 14.52C50.15 12.81 46.89 12.76 40.53 12.76C40.02 12 38.96 10.61 37.2 9.22C35.65 8.01 33.34 6.63 30.17 5.85L30.17 3.08C30.17 2.48 29.69 2 29.09 2L20.41 2C19.81 2 19.33 2.48 19.33 3.08L19.33 5.85C16.16 6.63 13.84 8 12.29 9.22C10.53 10.6 9.46 12 8.95 12.75L7.68 12.75C7.6 12.73 7.24 12.73 7.15 12.75L5.25 12.75C4.96 12.75 4.69 12.87 4.48 13.07L2.32 15.22C2.11 15.42 2 15.7 2 15.98L2 23.54C2 23.84 2.13 24.13 2.35 24.33C2.62 24.58 5.04 26.75 7.4 26.75L8.94 26.75C9.78 28.66 11.69 30 13.92 30C16.14 30 18.06 28.66 18.89 26.75L37.11 26.75C37.94 28.66 39.86 30 42.08 30C44.31 30 46.23 28.66 47.06 26.75L52.92 26.75C53.51 26.75 54 26.26 54 25.67C54 19.45 54 16.32 52.02 14.52ZM35.77 10.84C36.63 11.51 37.3 12.18 37.8 12.75L23.67 12.75L23.67 7.4C24.02 7.38 24.38 7.37 24.75 7.37C29.09 7.37 32.8 8.54 35.77 10.84ZM21.49 4.15L21.49 4.15L28.01 4.15L28.01 5.44C26.99 5.3 25.91 5.22 24.75 5.22C23.59 5.22 22.51 5.3 21.49 5.44L21.49 4.15L21.49 4.15ZM21.5 7.61L21.5 12.75L11.68 12.75C13.19 11.03 16.28 8.41 21.5 7.61ZM5.7 14.91L6.33 14.91L6.33 15.98L4.62 15.98L5.7 14.91ZM13.92 27.85C12.12 27.85 10.67 26.4 10.67 24.62C10.67 22.84 12.12 21.39 13.92 21.39C15.71 21.39 17.17 22.84 17.17 24.62C17.17 26.4 15.71 27.85 13.92 27.85ZM42.08 27.85C40.29 27.85 38.83 26.4 38.83 24.62C38.83 22.84 40.29 21.39 42.08 21.39C43.88 21.39 45.33 22.84 45.33 24.62C45.33 26.4 43.88 27.85 42.08 27.85ZM47.5 24.59L47.5 24.59C47.49 21.64 45.06 19.24 42.08 19.24C39.11 19.24 36.68 21.64 36.67 24.59L19.33 24.59C19.32 21.64 16.89 19.24 13.92 19.24C10.94 19.24 8.51 21.64 8.5 24.59L7.42 24.59C7.41 24.59 7.41 24.59 7.41 24.59L7.4 24.59C6.33 24.59 4.91 23.64 4.17 23.05L4.17 18.14L7.42 18.14C8.01 18.14 8.5 17.65 8.5 17.06L8.5 14.91L9.56 14.91L39.83 14.91C39.86 14.91 39.89 14.91 39.92 14.91C45.72 14.91 49 14.91 50.41 15.98L48.57 15.98C47.97 15.98 47.49 16.47 47.49 17.06C47.49 17.65 47.97 18.14 48.57 18.14L51.51 18.14C51.8 19.59 51.83 21.71 51.83 24.59L47.5 24.59ZM42.08 23.54C41.49 23.54 41 24.02 41 24.62C41 25.21 41.49 25.69 42.08 25.69C42.68 25.69 43.17 25.21 43.17 24.62C43.17 24.02 42.68 23.54 42.08 23.54Z" />
</svg>