<svg xmlns="http://www.w3.org/2000/svg" viewBox="0 0 43 41" width="43" height="41">
	<style>
		tspan { white-space:pre }
		.shp0 { fill: #ff9603 } 
	</style>
	<path id="Shape 1" class="shp0" d="M40 33.2C36.02 31.09 32.97 29.91 30.25 29.45L30.53 29.07C30.67 28.93 30.73 28.73 30.67 28.53L30.04 26.01C31.66 23.68 32.59 20.77 32.53 18L32.53 14.03C32.58 14 32.62 13.97 32.67 13.93C33.53 13.2 34 12.13 34 11.07C34 6.07 29.93 2 25 2L19.07 2C14.07 2 10 6.07 9.93 11C9.93 12.13 10.4 13.13 11.27 13.87C11.29 13.88 11.31 13.9 11.33 13.92L11.33 18C11.33 20.78 12.31 23.7 13.96 26.03L13.33 28.53C13.33 28.67 13.33 28.87 13.47 29.07L13.75 29.45C11.03 29.91 7.98 31.09 4 33.2C2.73 33.8 2 35.07 2 36.47L2 39.33C2 39.73 2.27 40 2.67 40L41.33 40C41.73 40 42 39.73 42 39.33L42 36.47C42 35.13 41.2 33.87 40 33.2ZM29 27.33L29.27 28.53L28.59 29.47C28.54 29.5 28.5 29.55 28.47 29.6L24.8 34.67L23 30.61C24.94 30.37 26.69 29.47 28.15 28.16C28.44 27.9 28.73 27.63 29 27.33ZM31.8 12.87C31.78 12.88 31.76 12.9 31.75 12.91C31.67 12.93 31.6 12.96 31.53 13C31.24 13.22 30.94 13.35 30.62 13.41C30.37 13.45 30.11 13.45 29.87 13.4C25.09 12.49 20.25 12.41 15.61 13.15C15.09 13.22 14.58 13.31 14.07 13.4C13.98 13.41 13.9 13.41 13.82 13.42C13.28 13.41 12.77 13.26 12.33 12.93C11.93 12.67 11.67 12.27 11.53 11.87L14.4 11.33C19.4 10.4 24.53 10.4 29.67 11.33L32.51 11.86C32.36 12.24 32.12 12.59 31.8 12.87ZM19 3.33L24.93 3.33C29.02 3.33 32.38 6.52 32.65 10.54L29.87 10.07C24.6 9.13 19.27 9.13 14.13 10.07L11.35 10.54C11.62 6.52 14.97 3.33 19 3.33ZM12.67 14.6C13.2 14.73 13.8 14.8 14.4 14.67C16.89 14.2 19.41 13.97 21.95 13.97C24.49 13.97 27.04 14.2 29.6 14.67C29.78 14.71 29.93 14.73 30.07 14.73C30.49 14.76 30.93 14.7 31.33 14.6L31.33 18C31.33 20.91 30.34 23.49 28.84 25.45L28.8 25.47C28.73 25.53 28.67 25.6 28.6 25.67C28.26 26.11 27.91 26.52 27.54 26.89C25.89 28.43 23.89 29.33 22 29.33L22 29.33C21.93 29.33 21.86 29.33 21.79 29.33C20.67 29.29 19.51 28.94 18.42 28.33C17.33 27.7 16.31 26.8 15.4 25.67C15.33 25.6 15.27 25.53 15.2 25.47L15.16 25.45C13.66 23.49 12.67 20.91 12.67 18L12.67 14.6ZM21 30.61L19.2 34.67L15.53 29.6C15.51 29.58 15.49 29.56 15.46 29.54L14.73 28.53L15 27.33C15.09 27.43 15.18 27.52 15.27 27.62C16.84 29.22 18.8 30.34 21 30.61ZM40.67 38.67L25.33 38.67L3.33 38.67L3.33 36.47C3.33 35.6 3.8 34.8 4.6 34.4C8.85 32.14 11.91 31.01 14.63 30.67L18.8 36.4C18.9 36.56 19.05 36.63 19.24 36.66C19.27 36.66 19.3 36.67 19.33 36.67C19.33 36.67 19.4 36.67 19.4 36.73C19.6 36.73 19.87 36.53 19.93 36.33L22 31.67L22.89 33.61L24.07 36.27C24.13 36.47 24.33 36.67 24.6 36.67L24.67 36.67C24.87 36.67 25.07 36.53 25.2 36.4L29.41 30.61C32.12 31.02 35.24 32.15 39.4 34.33C40.2 34.8 40.67 35.6 40.67 36.47L40.67 38.67L40.67 38.67ZM20.67 8.67L23.33 8.67C23.73 8.67 24 8.4 24 8L24 4.67C24 4.27 23.73 4 23.33 4L20.67 4C20.27 4 20 4.27 20 4.67L20 8C20 8.4 20.27 8.67 20.67 8.67ZM21.33 5.33L22.67 5.33L22.67 7.33L21.33 7.33L21.33 5.33Z" />
</svg>